<?xml version="1.0" standalone="no"?>
<!DOCTYPE svg PUBLIC "-//W3C//DTD SVG 20010904//EN"
 "http://www.w3.org/TR/2001/REC-SVG-20010904/DTD/svg10.dtd">
<svg version="1.0" xmlns="http://www.w3.org/2000/svg"
 width="128.000000pt" height="128.000000pt" viewBox="0 0 128.000000 128.000000"
 preserveAspectRatio="xMidYMid meet">

<g transform="translate(0.000000,128.000000) scale(0.100000,-0.100000)"
fill="#000000" stroke="none">
<path d="M325 1046 c-37 -17 -80 -62 -94 -99 -17 -45 -15 -579 3 -620 16 -39
61 -82 99 -96 45 -17 579 -15 620 3 39 16 82 61 96 99 15 38 15 576 0 614 -14
38 -57 83 -96 99 -46 20 -584 19 -628 0z m635 -33 c19 -12 44 -37 55 -55 19
-31 20 -51 20 -318 0 -267 -1 -287 -20 -318 -11 -18 -36 -43 -55 -55 -34 -21
-44 -22 -320 -22 -276 0 -286 1 -320 22 -72 45 -75 57 -78 350 -2 166 1 276 8
302 13 48 59 97 103 110 18 6 154 9 302 8 258 -2 272 -3 305 -24z"/>
<path d="M375 991 c-34 -14 -84 -73 -90 -105 -4 -17 -5 -139 -3 -271 3 -262 3
-262 67 -311 24 -18 44 -19 291 -19 247 0 267 1 291 19 60 46 64 60 65 211 l1
140 -6 -130 c-7 -150 -19 -184 -81 -215 -36 -18 -59 -20 -270 -20 -212 0 -234
2 -270 20 -26 13 -47 34 -60 60 -18 36 -20 58 -20 270 0 211 2 234 20 270 36
70 54 74 325 80 l240 6 -240 1 c-132 1 -249 -2 -260 -6z"/>
<path d="M612 858 c-6 -6 -12 -17 -12 -22 0 -6 -15 -18 -32 -26 -52 -24 -69
-58 -80 -156 -7 -63 -16 -95 -29 -110 -10 -11 -19 -27 -19 -36 0 -31 26 -39
141 -39 102 0 112 -2 95 -15 -23 -17 -40 -18 -67 -4 -12 7 -19 7 -19 1 0 -12
33 -31 53 -31 8 0 25 11 38 25 20 20 34 25 80 25 77 0 101 30 60 74 -13 15
-22 47 -29 110 -11 97 -28 131 -79 156 -17 8 -34 24 -39 35 -11 24 -44 31 -62
13z m46 -16 c2 -7 -6 -12 -17 -12 -21 0 -27 11 -14 24 9 9 26 2 31 -12z m55
-47 c50 -34 63 -65 71 -162 l7 -83 -151 0 -151 0 7 83 c3 45 13 94 20 109 20
39 82 78 124 78 21 0 50 -10 73 -25z m112 -280 c0 -19 -8 -20 -179 -23 -105
-1 -184 2 -189 7 -5 5 -7 17 -4 26 6 13 30 15 189 13 175 -3 183 -4 183 -23z"/>
<path d="M991 784 c0 -11 3 -14 6 -6 3 7 2 16 -1 19 -3 4 -6 -2 -5 -13z"/>
<path d="M992 710 c0 -19 2 -27 5 -17 2 9 2 25 0 35 -3 9 -5 1 -5 -18z"/>
</g>
</svg>
